<svg width="30" height="29" viewBox="0 0 30 29" fill="none" xmlns="http://www.w3.org/2000/svg">
<path d="M21.2287 27.4897C19.8773 27.4897 18.4542 27.1634 16.9833 26.5351C15.5483 25.9188 14.1012 25.073 12.6901 24.0459C11.2909 23.0067 9.93959 21.8468 8.66001 20.578C7.39238 19.2851 6.24434 17.9197 5.22784 16.518C4.19939 15.068 3.37423 13.618 2.78825 12.2163C2.1664 10.718 1.85547 9.268 1.85547 7.90258C1.85547 6.96008 2.02289 6.06591 2.34578 5.23216C2.68062 4.37425 3.21877 3.57675 3.94825 2.888C4.86908 1.96966 5.92145 1.5105 7.04557 1.5105C7.51196 1.5105 7.99031 1.61925 8.39691 1.81258C8.8633 2.03008 9.25794 2.35633 9.54495 2.79133L12.3194 6.74258C12.5705 7.093 12.7619 7.43133 12.8934 7.76966C13.0489 8.13216 13.1326 8.49467 13.1326 8.84508C13.1326 9.30425 13.001 9.75133 12.7499 10.1742C12.5705 10.5005 12.2955 10.8509 11.9487 11.2013L11.1355 12.0592C11.1474 12.0955 11.1594 12.1197 11.1713 12.1438C11.3149 12.3976 11.6019 12.8326 12.152 13.4851C12.7379 14.1617 13.288 14.778 13.8382 15.3459C14.5437 16.0467 15.1297 16.6026 15.6798 17.0617C16.3614 17.6417 16.8039 17.9317 17.067 18.0647L17.0431 18.1251L17.9161 17.2551C18.2868 16.8805 18.6456 16.6026 18.9924 16.4213C19.6501 16.0105 20.4872 15.938 21.3243 16.2884C21.6353 16.4213 21.9701 16.6026 22.3289 16.8563L26.2992 19.708C26.7417 20.0101 27.0645 20.3967 27.2559 20.8559C27.4353 21.3151 27.519 21.738 27.519 22.1609C27.519 22.7409 27.3874 23.3209 27.1363 23.8647C26.8852 24.4084 26.5742 24.8797 26.1796 25.3147C25.4979 26.0759 24.7565 26.6197 23.8955 26.9701C23.0703 27.3084 22.1734 27.4897 21.2287 27.4897ZM7.04557 3.323C6.38784 3.323 5.77794 3.613 5.19196 4.193C4.64186 4.71258 4.25918 5.2805 4.02 5.89675C3.76887 6.52508 3.64928 7.18966 3.64928 7.90258C3.64928 9.02633 3.91238 10.2467 4.43856 11.5034C4.97671 12.7842 5.73011 14.1134 6.68681 15.4426C7.64351 16.7717 8.73176 18.0647 9.92763 19.2851C11.1235 20.4813 12.4151 21.593 13.7425 22.5717C15.034 23.5263 16.3614 24.2997 17.6769 24.8555C19.7219 25.7376 21.6353 25.943 23.2138 25.2784C23.8237 25.0247 24.3619 24.638 24.8522 24.0822C25.1272 23.7801 25.3425 23.4538 25.5219 23.0672C25.6654 22.7651 25.7371 22.4509 25.7371 22.1367C25.7371 21.9434 25.7012 21.7501 25.6056 21.5326C25.5697 21.4601 25.4979 21.3272 25.2707 21.1701L21.3004 18.3184C21.0612 18.1492 20.846 18.0284 20.6427 17.9438C20.3796 17.8351 20.272 17.7263 19.8654 17.9801C19.6262 18.1009 19.4109 18.2822 19.1718 18.5238L18.2629 19.4301C17.7965 19.8892 17.079 19.998 16.5289 19.7926L16.206 19.6476C15.7157 19.3817 15.1417 18.9709 14.5078 18.4272C13.9338 17.9317 13.312 17.3517 12.5586 16.6026C11.9726 15.9984 11.3866 15.358 10.7767 14.6451C10.2146 13.9805 9.80805 13.4126 9.55691 12.9413L9.41341 12.5788C9.34165 12.3009 9.31774 12.1438 9.31774 11.9747C9.31774 11.5397 9.4732 11.153 9.77217 10.8509L10.6691 9.90841C10.9083 9.66675 11.0876 9.43716 11.2072 9.23175C11.3029 9.07466 11.3388 8.94175 11.3388 8.82092C11.3388 8.72425 11.3029 8.57925 11.2431 8.43425C11.1594 8.24091 11.0278 8.02341 10.8604 7.79383L8.08598 3.8305C7.9664 3.66133 7.82289 3.5405 7.64351 3.45591C7.45217 3.37133 7.24887 3.323 7.04557 3.323ZM17.0431 18.1372L16.8518 18.9588L17.1746 18.113C17.1149 18.1009 17.067 18.113 17.0431 18.1372Z" fill="white"/>
</svg>
