<svg width="29" height="29" viewBox="0 0 29 29" fill="none" xmlns="http://www.w3.org/2000/svg">
<path fill-rule="evenodd" clip-rule="evenodd" d="M23.3511 5.49986C22.1902 4.32631 20.811 3.39635 19.293 2.76353C17.7749 2.1307 16.148 1.80751 14.5059 1.81256C7.61427 1.81256 2.00411 7.45283 2.00131 14.3868C1.99826 16.5947 2.57426 18.764 3.67068 20.6739L1.89648 27.1876L8.52519 25.4391C10.36 26.4434 12.414 26.9691 14.5008 26.9684H14.5059C21.3969 26.9684 27.0065 21.3275 27.0099 14.3941C27.0141 12.7406 26.6927 11.1026 26.0646 9.57569C25.4365 8.04874 24.5141 6.66326 23.3511 5.49986ZM14.5059 24.846H14.5014C12.6411 24.8466 10.8146 24.3436 9.21188 23.3892L8.83238 23.1627L4.89888 24.2003L5.94882 20.3437L5.70161 19.9472C4.66142 18.2832 4.1103 16.3549 4.11241 14.3868C4.11241 8.62473 8.77688 3.93658 14.5098 3.93658C17.2599 3.93162 19.8994 5.03061 21.8477 6.99185C23.7959 8.95308 24.8934 11.6159 24.8988 14.3947C24.8965 20.1573 20.2343 24.846 14.5059 24.846ZM20.2063 17.0189C19.894 16.8614 18.3564 16.1013 18.0716 15.9965C17.7869 15.8917 17.5767 15.839 17.3687 16.154C17.1607 16.4689 16.5615 17.1735 16.3793 17.3859C16.1971 17.5983 16.0149 17.6215 15.7027 17.4641C15.3905 17.3066 14.3831 16.9753 13.1897 15.9047C12.2608 15.0716 11.6341 14.043 11.4519 13.7286C11.2697 13.4143 11.4323 13.2438 11.5887 13.0874C11.7294 12.9464 11.9009 12.7204 12.0573 12.5369C12.2137 12.3534 12.2659 12.222 12.3696 12.0124C12.4733 11.8028 12.4217 11.6193 12.3438 11.4624C12.2659 11.3055 11.6408 9.75867 11.3807 9.12939C11.1268 8.51654 10.8695 8.5998 10.6778 8.59018C10.4956 8.58111 10.2854 8.57885 10.0785 8.57885C9.92039 8.58301 9.76481 8.62006 9.62148 8.68769C9.47816 8.75532 9.35018 8.85209 9.24552 8.97193C8.95907 9.28685 8.15185 10.0481 8.15185 11.5933C8.15185 13.1384 9.27299 14.6337 9.4277 14.8433C9.58242 15.0529 11.6307 18.2264 14.7649 19.5875C15.3468 19.8393 15.9415 20.0602 16.5463 20.2491C17.2947 20.4881 17.9758 20.4547 18.5139 20.3737C19.1143 20.2836 20.3638 19.6136 20.6233 18.8795C20.8829 18.1455 20.8834 17.5167 20.8055 17.3859C20.7276 17.2551 20.5191 17.1758 20.2063 17.0189Z" fill="white"/>
</svg>
