<svg width="149" height="105" viewBox="0 0 149 105" fill="none" xmlns="http://www.w3.org/2000/svg">
<path d="M91.0954 42.4337C90.7092 42.2307 90.5381 41.9549 90.7092 41.5332C95.7399 29.3169 113.057 2.26068 113.057 2.26068C113.057 2.26068 112.744 2.22945 112.499 2.22945C109.996 2.22945 108.29 2.76558 107.429 3.82222C103.323 8.85556 98.3066 18.2352 92.5328 31.6956C91.1981 34.7822 89.927 37.8272 88.7585 40.7421C88.6265 41.0648 88.3332 41.2626 88.0203 41.2626C87.9372 41.2626 87.8492 41.247 87.7661 41.221C84.0456 39.8989 78.6824 38.7277 71.8233 37.7283C71.5837 37.6971 71.3637 37.5409 71.2415 37.3171C71.1144 37.0881 71.0948 36.8174 71.1828 36.5728C74.918 26.2302 76.8051 18.1102 76.8051 12.4523C76.8051 9.3084 76.326 5.1235 72.1704 5.1235C70.8601 5.1235 69.0512 5.61278 66.7926 6.57052C64.5583 7.50744 63.7908 8.25176 63.5268 8.67858C63.5805 8.81391 63.6343 8.94925 63.6881 9.08458C64.0401 8.89719 64.6072 8.57969 65.5166 8.04877C67.2277 7.04938 68.6357 6.56011 69.809 6.56011C71.525 6.56011 73.5686 7.55949 73.5686 12.3274C73.5686 17.621 71.481 25.8138 67.3548 36.6977C67.2326 37.0256 66.9392 37.2338 66.6117 37.2338H66.553C65.233 37.1297 63.7565 37.0569 62.1432 37.0152C62.8276 35.0269 63.4388 33.0125 63.9814 30.9773C65.1792 26.7663 65.6828 22.2952 65.4286 17.8968C65.2477 14.9091 64.749 11.8745 63.6881 9.08979C63.5708 9.15225 63.4779 9.1991 63.4045 9.23553C63.3948 9.18348 63.3948 9.12622 63.3948 9.05335C63.3948 9.0013 63.4094 8.87117 63.5268 8.68379C63.0623 7.53867 62.5001 6.43518 61.8205 5.39937C59.4298 1.64127 55.2302 -0.279411 51.0209 0.032896C46.8311 0.116178 42.7439 2.16178 39.9866 5.54511C34.6479 12.0671 32.4429 22.545 35.0781 30.8159C36.1243 33.5382 37.5421 36.0419 39.219 38.3425C33.6847 39.1337 28.4096 40.2684 23.4229 41.7363C7.87607 46.3844 0 53.7288 0 63.5769C0 68.8653 2.05335 72.9201 6.26761 75.9651C9.97831 78.6249 14.525 79.973 19.7757 79.973C28.9229 79.973 38.6959 75.4237 48.8306 66.4449C53.8173 62.0622 58.2174 57.3204 61.9965 52.261C68.3912 52.1985 74.6148 48.9766 80.2224 43.1208C80.2518 43.0844 80.2518 43.0271 80.2224 42.9907C80.1882 42.9543 80.1345 42.9543 80.0953 42.9907C75.3531 47.8939 69.017 51.6676 62.3876 51.7353C65.2232 47.8783 67.7019 43.8391 69.809 39.6334C69.9508 39.3523 70.2246 39.1805 70.5179 39.1805C70.5473 39.1805 70.5717 39.1805 70.601 39.1805C77.4064 39.9353 82.9896 41.0492 87.2038 42.491C87.4141 42.5639 87.5901 42.7252 87.6879 42.9386C87.7856 43.1573 87.7905 43.4071 87.7025 43.6205C84.1874 52.8752 80.3545 69.797 80.2469 73.831C80.2225 74.7054 80.198 75.5487 80.3251 76.1577C80.3447 76.2514 80.4131 76.3346 80.4962 76.3763C81.254 76.751 81.8994 76.7042 82.7451 76.5481C82.8576 76.5272 82.7647 76.2774 82.7647 76.1264C82.7549 75.7933 82.6034 74.4088 82.7647 72.2018C83.1509 67.0591 86.0207 53.1511 89.531 44.3544C89.6141 44.141 89.7803 44.0161 89.9808 43.9328C90.0736 43.8964 90.1763 43.8756 90.2692 43.8756C90.3865 43.8756 90.499 43.9016 90.6065 43.9536C94.9577 46.0877 96.0088 46.8685 97.6466 51.5947C97.8177 52.0892 98.3017 50.9962 98.2186 50.231C97.9448 47.6805 95.823 44.8697 91.1003 42.4337H91.0954ZM36.5643 30.2173C35.8701 28.2967 35.5572 26.1938 35.4692 24.0805C34.9901 12.3326 41.3506 -1.1747 54.0618 0.626271C64.1379 2.31793 65.5361 15.5598 64.3334 24.3876C63.8005 28.6714 62.5441 32.8303 61.2045 36.9007C61.1947 36.9319 61.185 36.9632 61.1752 36.9944C60.525 36.984 59.8552 36.9788 59.1658 36.9788C52.8053 36.9788 46.6893 37.3588 40.847 38.1187C40.3288 37.364 39.835 36.5936 39.3706 35.8128C38.3097 34.0379 37.2928 32.1588 36.5741 30.2173H36.5643ZM60.613 38.5611C59.1218 42.6524 57.2836 46.603 55.0542 50.2883C49.8426 48.2426 45.4084 44.292 41.9324 39.649C47.3982 38.9151 53.0742 38.5455 58.9165 38.5455C59.4934 38.5455 60.0605 38.5507 60.6081 38.5611H60.613ZM47.0315 65.482C37.6203 74.2266 28.4487 78.6613 19.7757 78.6613C15.3806 78.6613 11.533 77.5579 8.3503 75.3821C4.48805 72.7952 2.53246 69.1152 2.53246 64.4566C2.53246 54.8375 10.2912 47.6545 25.5935 43.1104C30.3211 41.705 35.2639 40.6224 40.3972 39.8676C42.299 42.2203 44.4648 44.3388 46.7431 46.2387C49.3635 48.3936 52.0133 49.9447 54.6631 50.9337C54.008 51.9851 53.3187 53.0105 52.6 54.0151C43.9026 66.3877 30.0278 73.0086 15.9135 75.101C15.8695 75.101 15.8401 75.1427 15.845 75.1895C15.845 75.2364 15.889 75.2676 15.933 75.2624C22.0344 74.4244 28.1016 72.9201 33.7776 70.354C42.7732 66.3721 50.1702 59.6679 55.4991 51.2304C56.5894 51.5895 57.6796 51.8498 58.7698 52.0216C55.3818 56.8363 51.4609 61.3387 47.0364 65.4872L47.0315 65.482ZM65.7854 40.0394C63.8885 44.0109 61.6738 47.821 59.156 51.4594C58.7796 51.3917 58.3983 51.3137 58.0218 51.22C57.2983 51.0482 56.5845 50.84 55.8902 50.6006C57.308 48.2895 58.5743 45.8535 59.6792 43.3082C60.3636 41.7571 60.9992 40.1851 61.581 38.5924C62.8521 38.634 64.045 38.7017 65.1352 38.8006C65.4041 38.8266 65.6437 38.988 65.7708 39.2378C65.8979 39.4877 65.9077 39.7895 65.7806 40.0394H65.7854Z" fill="#E0D3DE"/>
<path d="M146.247 17.6366V71.015C146.247 71.6188 146.316 72.2798 146.452 72.9929C146.589 73.6644 147.435 75.8818 148.613 75.8766H148.789V76.6729H138.987V75.8766H139.099C140.811 75.8193 141.207 73.6852 141.343 73.0033C141.48 72.285 141.554 71.624 141.554 71.0202V18.3444C141.554 17.9384 141.285 17.5897 140.913 17.5064C140.855 17.496 140.806 17.4908 140.752 17.4908C140.434 17.4908 140.141 17.6938 140.014 18.0061L116.483 76.4595L94.1751 21.1084C94.048 20.7856 93.7546 20.5931 93.4417 20.5931C93.3831 20.5931 93.3342 20.5931 93.2755 20.6087C92.9039 20.692 92.635 21.0407 92.635 21.4467V71.015C92.635 71.6032 92.6986 72.2486 92.8355 72.9825C92.9773 73.6644 93.2071 75.8557 94.972 75.8766H95.1431V76.6729H88.5039V75.8766H88.7288C90.259 75.8609 90.6062 73.6696 90.743 73.0033C90.8848 72.2486 90.9533 71.6084 90.9533 71.0202V17.6417C90.9533 17.116 91.1586 13.2851 88.807 13.0873H88.5088V12.2909H95.8275L117.442 66.5438C117.569 66.8613 117.857 67.0643 118.185 67.0643C118.512 67.0643 118.796 66.8613 118.923 66.5438L140.537 12.2909H148.799V13.0873C148.799 13.0873 148.608 13.0873 148.545 13.0873C146.604 13.1081 146.218 15.5181 146.262 17.6417L146.247 17.6366Z" fill="#E0D3DE"/>
<path d="M14.396 101.998H14.5294C14.6547 101.998 14.77 101.95 14.8771 101.851C14.9842 101.753 15.0732 101.638 15.144 101.506C15.2329 101.374 15.2956 101.235 15.332 101.088C15.3684 100.923 15.3845 100.776 15.3845 100.644V87.6927L8.47059 102.514L1.90437 88.4561V100.644C1.90437 100.776 1.92256 100.923 1.95693 101.088C1.99332 101.235 2.04588 101.374 2.11664 101.506C2.20559 101.638 2.30465 101.751 2.41179 101.851C2.51894 101.95 2.64428 101.998 2.78781 101.998H2.92124V102.243H0V101.998H0.133428C0.258768 101.998 0.374001 101.95 0.481147 101.851C0.588292 101.753 0.677241 101.638 0.750019 101.506C0.820776 101.374 0.875362 101.235 0.909729 101.088C0.946118 100.923 0.96229 100.776 0.96229 100.644V87.5219C0.96229 87.4067 0.944097 87.2767 0.909729 87.1281C0.87334 86.9814 0.820776 86.8421 0.750019 86.7102C0.679263 86.5783 0.590314 86.4725 0.481147 86.3907C0.374001 86.2923 0.258768 86.244 0.133428 86.244H0V85.9988H2.73323L8.95173 99.4665L15.1702 85.9988H18.1986V86.244H18.0652C17.9217 86.244 17.7983 86.2923 17.6892 86.3907C17.582 86.4725 17.485 86.5783 17.394 86.7102C17.3233 86.8421 17.2687 86.9814 17.2343 87.1281C17.1979 87.2748 17.1818 87.4067 17.1818 87.5219V100.644C17.1818 100.776 17.1999 100.923 17.2343 101.088C17.2707 101.235 17.3233 101.374 17.394 101.506C17.483 101.638 17.582 101.751 17.6892 101.851C17.7963 101.952 17.9217 101.998 18.0652 101.998H18.1986V102.243H14.3939V101.998H14.396ZM21.882 101.998H22.0154C22.159 101.998 22.2823 101.957 22.3915 101.875C22.4986 101.777 22.5876 101.662 22.6583 101.53C22.7473 101.398 22.8099 101.259 22.8463 101.112C22.8989 100.965 22.9272 100.826 22.9272 100.694V87.52C22.9272 87.4049 22.8989 87.2748 22.8463 87.1263C22.8099 86.9795 22.7473 86.8402 22.6583 86.7084C22.5855 86.5765 22.4986 86.4706 22.3915 86.3889C22.2843 86.2904 22.159 86.2422 22.0154 86.2422H21.882V85.997H32.2004V88.2871H31.9315C31.8951 87.9101 31.7354 87.5813 31.4483 87.3027C31.1613 87.0074 30.7165 86.8588 30.108 86.8588H24.7204V93.0883H29.1679C29.5783 93.0883 29.918 92.975 30.1868 92.7429C30.4739 92.5126 30.6154 92.2432 30.6154 91.9312H30.8823V95.0088H30.6154C30.6154 94.7135 30.482 94.4591 30.2131 94.2455C29.9463 94.0319 29.5965 93.926 29.1679 93.926H24.7204V101.387H30.5891C30.9288 101.387 31.2239 101.313 31.4726 101.166C31.7233 101.019 31.9274 100.846 32.0892 100.648C32.2691 100.434 32.3924 100.213 32.4652 99.9828C32.5541 99.7358 32.5986 99.5315 32.5986 99.3662H32.8655V102.247H21.878V102.002L21.882 101.998ZM52.4428 101.381V104.459H52.174C52.1558 104.245 52.0931 104.008 51.986 103.746C51.8788 103.482 51.7272 103.237 51.5311 103.007C51.3512 102.793 51.1389 102.613 50.8882 102.464C50.6375 102.316 50.3606 102.243 50.0573 102.243H37.7032C37.4 102.243 37.123 102.317 36.8723 102.464C36.6216 102.63 36.3993 102.817 36.2012 103.031C36.0212 103.261 35.8696 103.508 35.7463 103.77C35.6391 104.034 35.5765 104.262 35.5583 104.459H35.2914V101.381H36.47C37.0421 101.381 37.4444 101.077 37.6769 100.471L43.8409 85.6237L50.0594 100.397C50.1847 100.644 50.3545 100.874 50.5668 101.088C50.7811 101.285 51.0318 101.383 51.3168 101.383H52.4428V101.381ZM38.2652 101.381H48.5836L43.4123 89.1433L38.2673 101.381H38.2652ZM66.3597 101.998H66.4931C66.6366 101.998 66.76 101.957 66.8691 101.875C66.9763 101.777 67.0652 101.662 67.136 101.53C67.2249 101.383 67.2876 101.235 67.324 101.086C67.3604 100.921 67.3766 100.774 67.3766 100.642V89.3662L58.4794 100.421V100.642C58.4794 100.774 58.4976 100.921 58.532 101.086C58.5845 101.233 58.6472 101.372 58.72 101.504C58.7928 101.636 58.8797 101.749 58.9868 101.849C59.094 101.948 59.2193 101.996 59.3629 101.996H59.4963V102.241H55.6916V101.996H55.825C55.9686 101.996 56.0939 101.955 56.201 101.874C56.3082 101.775 56.3971 101.66 56.4699 101.528C56.5589 101.381 56.6215 101.233 56.6579 101.084C56.6943 100.919 56.7105 100.772 56.7105 100.64V87.5182C56.7105 87.403 56.6923 87.273 56.6579 87.1244C56.6215 86.9777 56.5589 86.8384 56.4699 86.7065C56.3971 86.5746 56.3102 86.4688 56.201 86.387C56.0939 86.2886 55.9686 86.2403 55.825 86.2403H55.6916V85.9951H59.4963V86.2403H59.282C59.1566 86.257 59.0414 86.3146 58.9343 86.413C58.8453 86.5115 58.7645 86.6266 58.6937 86.7585C58.6209 86.8737 58.5684 87.0037 58.534 87.1523C58.4976 87.2841 58.4814 87.4067 58.4814 87.5219V98.8963L67.3786 87.8413V87.5219C67.3786 87.4067 67.3604 87.2767 67.326 87.1281C67.2896 86.9814 67.227 86.8421 67.138 86.7102C67.0672 86.5783 66.9783 86.4725 66.8711 86.3907C66.764 86.2923 66.6387 86.244 66.4951 86.244H66.3617V85.9988H70.1664V86.244H70.033C69.8894 86.244 69.7641 86.2923 69.6569 86.3907C69.5498 86.4725 69.4608 86.5783 69.3901 86.7102C69.3193 86.8421 69.2567 86.9814 69.2021 87.1281C69.1657 87.2748 69.1495 87.4067 69.1495 87.5219V100.644C69.1495 100.776 69.1677 100.915 69.2021 101.062C69.2546 101.209 69.3173 101.357 69.3901 101.506C69.4629 101.638 69.5498 101.751 69.6569 101.851C69.7641 101.95 69.8894 101.998 70.033 101.998H70.1664V102.243H66.3617V101.998H66.3597ZM84.4694 101.998H84.6028C84.7281 101.998 84.8434 101.957 84.9505 101.875C85.0576 101.777 85.1466 101.662 85.2194 101.53C85.3083 101.383 85.371 101.235 85.4074 101.086C85.4438 100.921 85.46 100.774 85.46 100.642V93.9446H76.8842V100.642C76.8842 100.774 76.9024 100.921 76.9368 101.086C76.9732 101.233 77.0257 101.372 77.0965 101.504C77.1673 101.636 77.2481 101.749 77.3371 101.849C77.4442 101.948 77.5696 101.996 77.7131 101.996H77.8465V102.241H74.0944V101.996H74.2278C74.3532 101.996 74.4684 101.955 74.5755 101.874C74.6827 101.775 74.7716 101.66 74.8424 101.528C74.9314 101.381 74.994 101.233 75.0304 101.084C75.0668 100.919 75.083 100.772 75.083 100.64V87.5182C75.083 87.403 75.0648 87.273 75.0304 87.1244C74.994 86.9777 74.9415 86.8384 74.8707 86.7065C74.7999 86.5746 74.711 86.4688 74.6038 86.387C74.4967 86.2886 74.3714 86.2403 74.2278 86.2403H74.0944V85.9951H77.8465V86.2403H77.7131C77.5696 86.2403 77.4463 86.2886 77.3371 86.387C77.2299 86.4688 77.141 86.5746 77.0702 86.7065C77.0177 86.8384 76.9712 86.9777 76.9368 87.1244C76.9004 87.2711 76.8842 87.403 76.8842 87.5182V93.0828H85.46V87.5182C85.46 87.403 85.4417 87.273 85.4074 87.1244C85.371 86.9777 85.3184 86.8384 85.2477 86.7065C85.1769 86.5746 85.088 86.4688 84.9808 86.387C84.8737 86.2886 84.7483 86.2403 84.6048 86.2403H84.4714V85.9951H88.2235V86.2403H88.0901C87.9465 86.2403 87.8232 86.2886 87.7141 86.387C87.6069 86.4688 87.518 86.5746 87.4472 86.7065C87.3946 86.8384 87.3481 86.9777 87.3138 87.1244C87.2774 87.2711 87.2612 87.403 87.2612 87.5182V100.64C87.2612 100.772 87.2794 100.919 87.3138 101.084C87.3663 101.231 87.429 101.37 87.5018 101.502C87.5725 101.634 87.6534 101.747 87.7424 101.848C87.8495 101.946 87.9668 101.994 88.0901 101.994H88.2235V102.239H84.4714V101.994V101.998H84.4694ZM98.2993 101.998H98.4327V102.243H94.628V101.998H94.7614C94.905 101.998 95.0283 101.95 95.1374 101.851C95.2466 101.753 95.3335 101.638 95.4043 101.506C95.4932 101.374 95.5559 101.235 95.5923 101.088C95.6287 100.923 95.6449 100.776 95.6449 100.644V86.9052H92.5356C92.2486 86.9052 91.9999 86.9628 91.7836 87.078C91.5693 87.1931 91.3914 87.3417 91.2478 87.5219C91.1043 87.6872 90.9972 87.8748 90.9264 88.0884C90.8557 88.2852 90.8193 88.4821 90.8193 88.679H90.5524V85.9951H102.585V88.679H102.318C102.318 88.4821 102.282 88.2852 102.211 88.0884C102.14 87.8748 102.031 87.6853 101.89 87.5219C101.746 87.3417 101.568 87.195 101.354 87.078C101.14 86.9628 100.889 86.9052 100.604 86.9052H97.4421V100.644C97.4421 100.776 97.4603 100.923 97.4946 101.088C97.531 101.235 97.5836 101.374 97.6544 101.506C97.7433 101.638 97.8343 101.751 97.9212 101.851C98.0284 101.95 98.1537 101.998 98.2972 101.998H98.2993ZM112.879 101.998H113.013C113.441 101.998 113.655 101.818 113.655 101.456C113.655 101.324 113.627 101.185 113.575 101.038L111.163 95.0553H106.473L104.142 100.941C104.089 101.073 104.061 101.196 104.061 101.311C104.061 101.524 104.124 101.697 104.249 101.829C104.374 101.944 104.508 102.002 104.651 102.002H104.785V102.247H101.811V102.002H101.944C102.177 102.002 102.399 101.879 102.615 101.632C102.848 101.368 103.036 101.066 103.179 100.722L109.317 85.7017L115.319 100.573C115.445 100.9 115.614 101.222 115.829 101.534C116.061 101.846 116.356 102 116.712 102H116.846V102.245H112.879V101.996V101.998ZM106.742 94.2176H110.87L108.808 89.0709L106.746 94.2176H106.742ZM121.799 100.521C121.639 100.949 121.388 101.342 121.049 101.703C120.709 102.063 120.21 102.245 119.546 102.245H118.716V102C118.823 102 118.966 101.974 119.144 101.926C119.324 101.861 119.51 101.76 119.708 101.63C119.904 101.498 120.1 101.335 120.299 101.138C120.495 100.924 120.664 100.661 120.806 100.349L125.87 87.5943C125.959 87.3491 126.004 87.1597 126.004 87.0278C126.004 86.7826 125.923 86.5932 125.763 86.4613C125.619 86.3146 125.468 86.2403 125.308 86.2403V85.9951H127.506L133.508 101.064C133.597 101.294 133.767 101.508 134.017 101.703C134.268 101.883 134.545 101.981 134.848 101.998V102.243H131.015V101.998C131.159 101.998 131.302 101.95 131.444 101.851C131.603 101.736 131.684 101.588 131.684 101.407C131.684 101.359 131.666 101.285 131.632 101.186L126.594 88.432L121.797 100.521H121.799ZM137.919 101.998H138.052C138.176 101.998 138.293 101.957 138.4 101.875C138.507 101.777 138.596 101.662 138.667 101.53C138.738 101.398 138.792 101.259 138.827 101.112C138.879 100.965 138.908 100.833 138.908 100.718V87.5962C138.908 87.481 138.889 87.3417 138.855 87.1783C138.819 87.013 138.756 86.8662 138.667 86.7344C138.596 86.6025 138.507 86.4892 138.4 86.3889C138.293 86.2904 138.176 86.2422 138.052 86.2422H137.919V85.997H141.697V86.2422H141.509C141.259 86.2756 141.063 86.4557 140.919 86.7845C140.776 87.0965 140.705 87.3677 140.705 87.5962V92.8896H142.207C143.03 92.8896 143.832 92.9713 144.619 93.1348C145.423 93.2815 146.129 93.5452 146.737 93.9241C147.362 94.2845 147.863 94.7692 148.237 95.3766C148.611 95.9672 148.799 96.7064 148.799 97.5924C148.799 98.3149 148.64 98.9631 148.316 99.5389C147.995 100.113 147.558 100.607 147.002 101.015C146.448 101.409 145.787 101.714 145.021 101.926C144.269 102.139 143.456 102.245 142.581 102.245H137.917V102L137.919 101.998ZM141.109 101.381C143.183 101.381 144.665 101.054 145.559 100.397C146.468 99.7395 146.925 98.8368 146.925 97.689C146.925 96.5411 146.468 95.5716 145.559 94.8324C144.665 94.095 143.343 93.7236 141.592 93.7236H140.709V101.381H141.111H141.109Z" fill="#E0D3DE"/>
</svg>
