<svg width="24" height="24" viewBox="0 0 24 24" fill="none" xmlns="http://www.w3.org/2000/svg">
<path fill-rule="evenodd" clip-rule="evenodd" d="M11.2351 10.0986C11.3569 9.52053 11.1776 8.69731 10.1077 7.69897C8.60934 6.20058 7.33993 6.07489 6.1556 5.95764C6.08199 5.95035 6.00872 5.94309 5.93573 5.93554C5.94328 6.00853 5.95054 6.0818 5.95783 6.15541C6.07508 7.33974 6.20077 8.60915 7.69916 10.1075C8.71418 11.1226 9.53665 11.3152 10.1109 11.2101C10.213 11.0077 10.3738 10.7874 10.5806 10.5807C10.7959 10.3653 11.026 10.1999 11.2351 10.0986Z" fill="#E1D9E0"/>
<path fill-rule="evenodd" clip-rule="evenodd" d="M12.7683 13.8987C12.6465 14.4767 12.8258 15.3 13.8957 16.2984C15.3941 17.7968 16.6635 17.9225 17.8478 18.0397C17.9214 18.047 17.9947 18.0543 18.0677 18.0618C18.0601 17.9888 18.0529 17.9156 18.0456 17.842C17.9283 16.6576 17.8027 15.3882 16.3043 13.8898C15.2891 12.8746 14.4665 12.6821 13.8922 12.7874C13.7901 12.9897 13.6293 13.21 13.4226 13.4167C13.2073 13.632 12.9774 13.7974 12.7683 13.8987Z" fill="#E1D9E0"/>
<path fill-rule="evenodd" clip-rule="evenodd" d="M13.9016 11.4929C14.4796 11.6146 15.3029 11.4353 16.3012 10.3655C17.7996 8.8671 17.9253 7.59768 18.0425 6.41335C18.0498 6.33974 18.0571 6.26647 18.0646 6.19349C17.9917 6.20104 17.9184 6.20829 17.8448 6.21558C16.6604 6.33284 15.391 6.45852 13.8926 7.95691C12.8775 8.97209 12.6849 9.79467 12.7902 10.3689C12.9925 10.4711 13.2128 10.6318 13.4196 10.8386C13.6349 11.0539 13.8003 11.2838 13.9016 11.4929Z" fill="#E1D9E0"/>
<path fill-rule="evenodd" clip-rule="evenodd" d="M10.3593 12.7678C9.7813 12.6461 8.95819 12.8256 7.96001 13.8952C6.46162 15.3936 6.33594 16.663 6.21868 17.8473C6.2114 17.9209 6.20414 17.9942 6.19659 18.0672C6.26957 18.0596 6.34285 18.0524 6.41645 18.0451C7.60079 17.9278 8.8702 17.8022 10.3686 16.3038C11.3837 15.2887 11.5763 14.4662 11.4711 13.8919C11.2687 13.7898 11.0482 13.629 10.8413 13.4221C10.626 13.2068 10.4606 12.9768 10.3593 12.7678Z" fill="#E1D9E0"/>
<path fill-rule="evenodd" clip-rule="evenodd" d="M13.0497 10.9469C13.6356 10.5649 14.1749 9.72561 14.115 7.99391C14.115 5.48498 13.1575 4.317 12.2641 3.22729C12.2086 3.15956 12.1533 3.09214 12.0985 3.02472C12.0437 3.09214 11.9885 3.15956 11.9329 3.22729C11.0396 4.317 10.082 5.48498 10.082 7.99391C10.082 9.69372 10.6095 10.5436 11.1784 10.9362C11.4332 10.8524 11.7522 10.8026 12.0983 10.8026C12.4588 10.8026 12.7898 10.8566 13.0497 10.9469Z" fill="#9189A1"/>
<path fill-rule="evenodd" clip-rule="evenodd" d="M11.1525 13.107C10.5666 13.4889 10.0273 14.3283 10.0871 16.06C10.0871 18.569 11.0447 19.737 11.9381 20.8267C11.9936 20.8944 12.0489 20.9618 12.1036 21.0292C12.1584 20.9618 12.2137 20.8944 12.2692 20.8267C13.1626 19.737 14.1201 18.569 14.1201 16.06C14.1201 14.3603 13.5927 13.5104 13.0239 13.1178C12.769 13.2016 12.4501 13.2514 12.104 13.2514C11.7435 13.2514 11.4124 13.1973 11.1525 13.107Z" fill="#9189A1"/>
<path fill-rule="evenodd" clip-rule="evenodd" d="M13.1066 12.9059C13.4885 13.4919 14.3278 14.0312 16.0596 13.9713C18.5685 13.9713 19.7365 13.0138 20.8262 12.1204C20.894 12.0649 20.9614 12.0096 21.0288 11.9548C20.9614 11.9001 20.894 11.8448 20.8262 11.7893C19.7365 10.8959 18.5685 9.93835 16.0596 9.93835C14.3596 9.93835 13.5097 10.4659 13.1171 11.0349C13.201 11.2898 13.2508 11.6087 13.2508 11.9548C13.2508 12.3152 13.1968 12.6461 13.1066 12.9059Z" fill="#9189A1"/>
<path fill-rule="evenodd" clip-rule="evenodd" d="M11.0911 11.0082C10.7092 10.4223 9.86982 9.88307 8.13814 9.94292C5.62921 9.94292 4.46122 10.9005 3.37151 11.7938C3.30379 11.8494 3.23637 11.9046 3.16895 11.9594C3.23637 12.0142 3.30379 12.0695 3.37151 12.125C4.46122 13.0184 5.62921 13.9759 8.13814 13.9759C9.83807 13.9759 10.688 13.4484 11.0806 12.8794C10.9967 12.6245 10.9469 12.3056 10.9469 11.9594C10.9469 11.599 11.0009 11.2681 11.0911 11.0082Z" fill="#9189A1"/>
<circle cx="12.027" cy="12.0269" r="1.51236" fill="#E1D9E0"/>
</svg>
